<mxfile host="app.diagrams.net" modified="2024-01-29T08:07:07.801Z" agent="Mozilla/5.0 (Windows NT 10.0; Win64; x64) AppleWebKit/537.36 (KHTML, like Gecko) Chrome/121.0.0.0 Safari/537.36" etag="7sGya6bN6_dJwOPnqF3z" version="23.0.2" type="device">
  <diagram id="C5RBs43oDa-KdzZeNtuy" name="Page-1">
    <mxGraphModel dx="794" dy="690" grid="1" gridSize="10" guides="1" tooltips="1" connect="1" arrows="1" fold="1" page="1" pageScale="1" pageWidth="827" pageHeight="1169" math="0" shadow="0">
      <root>
        <mxCell id="WIyWlLk6GJQsqaUBKTNV-0" />
        <mxCell id="WIyWlLk6GJQsqaUBKTNV-1" parent="WIyWlLk6GJQsqaUBKTNV-0" />
        <mxCell id="lkFTT0rSBE82ZdNXdsM4-0" value="시작" style="ellipse;whiteSpace=wrap;html=1;" vertex="1" parent="WIyWlLk6GJQsqaUBKTNV-1">
          <mxGeometry x="80" y="20" width="250" height="50" as="geometry" />
        </mxCell>
        <mxCell id="lkFTT0rSBE82ZdNXdsM4-2" value="종료" style="ellipse;whiteSpace=wrap;html=1;" vertex="1" parent="WIyWlLk6GJQsqaUBKTNV-1">
          <mxGeometry x="72" y="389" width="250" height="50" as="geometry" />
        </mxCell>
        <mxCell id="lkFTT0rSBE82ZdNXdsM4-3" value="숫자를 기억할 변수 no 준비" style="shape=hexagon;perimeter=hexagonPerimeter2;whiteSpace=wrap;html=1;fixedSize=1;" vertex="1" parent="WIyWlLk6GJQsqaUBKTNV-1">
          <mxGeometry x="70" y="100" width="260" height="50" as="geometry" />
        </mxCell>
        <mxCell id="lkFTT0rSBE82ZdNXdsM4-19" style="edgeStyle=orthogonalEdgeStyle;rounded=0;orthogonalLoop=1;jettySize=auto;html=1;entryX=0.5;entryY=0;entryDx=0;entryDy=0;" edge="1" parent="WIyWlLk6GJQsqaUBKTNV-1" source="lkFTT0rSBE82ZdNXdsM4-5" target="lkFTT0rSBE82ZdNXdsM4-20">
          <mxGeometry relative="1" as="geometry">
            <mxPoint x="380" y="200" as="targetPoint" />
          </mxGeometry>
        </mxCell>
        <mxCell id="lkFTT0rSBE82ZdNXdsM4-4" value="no에 정수를 입력받아서 기억" style="shape=parallelogram;perimeter=parallelogramPerimeter;whiteSpace=wrap;html=1;fixedSize=1;" vertex="1" parent="WIyWlLk6GJQsqaUBKTNV-1">
          <mxGeometry x="60" y="180" width="280" height="40" as="geometry" />
        </mxCell>
        <mxCell id="lkFTT0rSBE82ZdNXdsM4-17" style="edgeStyle=orthogonalEdgeStyle;rounded=0;orthogonalLoop=1;jettySize=auto;html=1;exitX=0.5;exitY=1;exitDx=0;exitDy=0;entryX=0.5;entryY=0;entryDx=0;entryDy=0;" edge="1" parent="WIyWlLk6GJQsqaUBKTNV-1" source="lkFTT0rSBE82ZdNXdsM4-5" target="lkFTT0rSBE82ZdNXdsM4-6">
          <mxGeometry relative="1" as="geometry" />
        </mxCell>
        <mxCell id="lkFTT0rSBE82ZdNXdsM4-5" value="no를 2로 나눈 나머지가 0이다" style="rhombus;whiteSpace=wrap;html=1;" vertex="1" parent="WIyWlLk6GJQsqaUBKTNV-1">
          <mxGeometry x="55" y="242" width="285" height="50" as="geometry" />
        </mxCell>
        <mxCell id="lkFTT0rSBE82ZdNXdsM4-18" style="edgeStyle=orthogonalEdgeStyle;rounded=0;orthogonalLoop=1;jettySize=auto;html=1;exitX=0.5;exitY=1;exitDx=0;exitDy=0;entryX=0.5;entryY=0;entryDx=0;entryDy=0;" edge="1" parent="WIyWlLk6GJQsqaUBKTNV-1" source="lkFTT0rSBE82ZdNXdsM4-6" target="lkFTT0rSBE82ZdNXdsM4-2">
          <mxGeometry relative="1" as="geometry" />
        </mxCell>
        <mxCell id="lkFTT0rSBE82ZdNXdsM4-6" value="&quot;짝수&quot;출력" style="shape=parallelogram;perimeter=parallelogramPerimeter;whiteSpace=wrap;html=1;fixedSize=1;" vertex="1" parent="WIyWlLk6GJQsqaUBKTNV-1">
          <mxGeometry x="50.5" y="320" width="292.5" height="40" as="geometry" />
        </mxCell>
        <mxCell id="lkFTT0rSBE82ZdNXdsM4-7" value="" style="endArrow=classic;html=1;rounded=0;" edge="1" parent="WIyWlLk6GJQsqaUBKTNV-1">
          <mxGeometry width="50" height="50" relative="1" as="geometry">
            <mxPoint x="204.5" y="70" as="sourcePoint" />
            <mxPoint x="204.5" y="91" as="targetPoint" />
          </mxGeometry>
        </mxCell>
        <mxCell id="lkFTT0rSBE82ZdNXdsM4-8" value="" style="endArrow=classic;html=1;rounded=0;" edge="1" parent="WIyWlLk6GJQsqaUBKTNV-1">
          <mxGeometry width="50" height="50" relative="1" as="geometry">
            <mxPoint x="204.5" y="159" as="sourcePoint" />
            <mxPoint x="204.5" y="180" as="targetPoint" />
          </mxGeometry>
        </mxCell>
        <mxCell id="lkFTT0rSBE82ZdNXdsM4-10" value="" style="endArrow=classic;html=1;rounded=0;" edge="1" parent="WIyWlLk6GJQsqaUBKTNV-1">
          <mxGeometry width="50" height="50" relative="1" as="geometry">
            <mxPoint x="199.5" y="220" as="sourcePoint" />
            <mxPoint x="199.5" y="241" as="targetPoint" />
          </mxGeometry>
        </mxCell>
        <mxCell id="lkFTT0rSBE82ZdNXdsM4-20" value="&quot;홀수&quot;출력" style="shape=parallelogram;perimeter=parallelogramPerimeter;whiteSpace=wrap;html=1;fixedSize=1;" vertex="1" parent="WIyWlLk6GJQsqaUBKTNV-1">
          <mxGeometry x="343" y="320" width="292.5" height="40" as="geometry" />
        </mxCell>
        <mxCell id="lkFTT0rSBE82ZdNXdsM4-21" value="NO" style="text;html=1;strokeColor=none;fillColor=none;align=center;verticalAlign=middle;whiteSpace=wrap;rounded=0;" vertex="1" parent="WIyWlLk6GJQsqaUBKTNV-1">
          <mxGeometry x="384" y="230" width="60" height="30" as="geometry" />
        </mxCell>
        <mxCell id="lkFTT0rSBE82ZdNXdsM4-22" value="YES" style="text;html=1;strokeColor=none;fillColor=none;align=center;verticalAlign=middle;whiteSpace=wrap;rounded=0;" vertex="1" parent="WIyWlLk6GJQsqaUBKTNV-1">
          <mxGeometry x="140" y="290" width="60" height="30" as="geometry" />
        </mxCell>
        <mxCell id="lkFTT0rSBE82ZdNXdsM4-23" value="시작&lt;br&gt;&lt;br&gt;int no;&lt;br&gt;&lt;br&gt;no = 입력 값&lt;br&gt;&lt;br&gt;no % 2 == 0 이라면&lt;br&gt;&lt;br&gt;print(&quot;짝수&quot;)&lt;br&gt;&lt;br&gt;print(&quot;홀수&quot;)&lt;br&gt;&lt;br&gt;종료" style="text;html=1;align=center;verticalAlign=middle;whiteSpace=wrap;rounded=0;fillColor=#f5f5f5;fontColor=#333333;strokeColor=#666666;" vertex="1" parent="WIyWlLk6GJQsqaUBKTNV-1">
          <mxGeometry x="510" y="10" width="140" height="300" as="geometry" />
        </mxCell>
      </root>
    </mxGraphModel>
  </diagram>
</mxfile>
